<?xml version="1.0" encoding="UTF-8"?>
<!DOCTYPE svg PUBLIC "-//W3C//DTD SVG 1.1//EN" "http://www.w3.org/Graphics/SVG/1.1/DTD/svg11.dtd">
<svg xmlns="http://www.w3.org/2000/svg" version="1.1" width="512px" height="512px" style="shape-rendering:geometricPrecision; text-rendering:geometricPrecision; image-rendering:optimizeQuality; fill-rule:evenodd; clip-rule:evenodd" xmlns:xlink="http://www.w3.org/1999/xlink">
<g><path style="opacity:0.952" fill="#020202" d="M 227.5,0.5 C 306.245,-3.71557 366.412,27.2844 408,93.5C 432.578,138.883 438.244,186.55 425,236.5C 402.668,305.832 356.168,349.332 285.5,367C 215.32,379.427 155.82,359.927 107,308.5C 60.2354,250.849 49.2354,186.849 74,116.5C 103.858,49.6525 155.025,10.9858 227.5,0.5 Z"/></g>
<g><path style="opacity:1" fill="#fefefe" d="M 229.5,12.5 C 303.467,9.22569 359.634,38.8924 398,101.5C 426.271,156.646 426.605,211.98 399,267.5C 360.999,331.593 304.499,361.759 229.5,358C 160.454,348.268 112.288,311.434 85,247.5C 62.372,182.319 73.0387,123.319 117,70.5C 147.451,37.5244 184.951,18.1911 229.5,12.5 Z"/></g>
<g><path style="opacity:1" fill="#040404" d="M 192.5,121.5 C 195.5,121.5 198.5,121.5 201.5,121.5C 201.5,142.833 201.5,164.167 201.5,185.5C 198.5,185.5 195.5,185.5 192.5,185.5C 192.5,164.167 192.5,142.833 192.5,121.5 Z"/></g>
<g><path style="opacity:1" fill="#040404" d="M 283.5,121.5 C 286.5,121.5 289.5,121.5 292.5,121.5C 292.5,142.833 292.5,164.167 292.5,185.5C 289.5,185.5 286.5,185.5 283.5,185.5C 283.5,164.167 283.5,142.833 283.5,121.5 Z"/></g>
<g><path style="opacity:1" fill="#0f0f0f" d="M 239.5,252.5 C 250.198,251.126 259.365,254.126 267,261.5C 273.407,277.181 268.24,287.015 251.5,291C 238.335,293.168 228.835,288.335 223,276.5C 221.614,269.102 223.78,262.935 229.5,258C 232.767,255.87 236.1,254.037 239.5,252.5 Z"/></g>
<g><path style="opacity:1" fill="#fbfbfb" d="M 240.5,258.5 C 249.502,257.111 257.002,259.777 263,266.5C 265.557,276.333 261.724,282.5 251.5,285C 242.795,286.897 235.628,284.397 230,277.5C 228.101,273.803 228.101,270.136 230,266.5C 232.975,262.952 236.475,260.286 240.5,258.5 Z"/></g>
<g><path style="opacity:0.948" fill="#020202" d="M 441.5,511.5 C 436.5,511.5 431.5,511.5 426.5,511.5C 399.311,468.15 362.311,435.984 315.5,415C 246.047,389.844 182.38,400.177 124.5,446C 101.706,464.949 82.3732,486.782 66.5,511.5C 61.5,511.5 56.5,511.5 51.5,511.5C 78.8713,464.465 117.205,429.298 166.5,406C 232.559,379.263 295.892,384.597 356.5,422C 391.921,445.251 420.255,475.084 441.5,511.5 Z"/></g>
<g><path style="opacity:1" fill="#fefefe" d="M 426.5,511.5 C 306.5,511.5 186.5,511.5 66.5,511.5C 82.3732,486.782 101.706,464.949 124.5,446C 182.38,400.177 246.047,389.844 315.5,415C 362.311,435.984 399.311,468.15 426.5,511.5 Z"/></g>
</svg>
